<svg xmlns="http://www.w3.org/2000/svg" viewBox="0 0 128 128" role="img" aria-label="Willro Group Travel">
  <path fill="#050505" d="M64 6c-31.48 0-57 25.52-57 57 0 13.2 4.52 25.34 12.08 34.99L64 124l44.92-26.01C116.48 88.34 121 76.2 121 63 121 31.52 95.48 6 64 6Zm0 14c23.75 0 43 19.25 43 43 0 9.92-3.38 19.04-9.04 26.3L64 108.95 30.04 89.3A42.8 42.8 0 0 1 21 63c0-23.75 19.25-43 43-43Z"/>
  <path fill="#050505" d="m35.78 62.62 11.7-9.06 25.54 6.84 19.9-17.58c4.07-3.6 8.94-4.06 10.9-1.03 1.97 3.03.29 8.41-3.77 12.01L80.14 71.38l6.02 25.76-10.1 8.07-14.55-22.7-18.77 16.56.28 10.56-8.06 6.23-7.6-16.76-14.87-10.8 8.06-6.24 10.26 2.5 18.77-16.57-13.8-5.37Z"/>
</svg>
